<svg width="256px" height="256px" viewBox="0 0 64.00 64.00" xmlns="http://www.w3.org/2000/svg" fill="#ff0088" stroke="#ff0088" stroke-width="0.00064" transform="matrix(1, 0, 0, 1, 0, 0)rotate(0)"><g id="SVGRepo_bgCarrier" stroke-width="0" transform="translate(0,0), scale(1)"><path transform="translate(0, 0), scale(2)" d="M16,30.365124631259178C18.29109412834611,29.215165385294473,18.42191120480153,25.889348155982297,20.24387383333362,24.086026012671745C21.404740260601805,22.937036400626223,23.19321776707013,22.8105367004978,24.55057185579706,21.902033608393424C26.44854776118273,20.631681978628393,29.152125706151303,19.862447439088704,29.818089801746684,17.677819868071378C30.456385600139342,15.5839553356502,28.215876332898887,13.689738840939013,27.702715887683315,11.561745287414183C27.103848656548035,9.078339523866306,28.30918047577307,5.945004601579171,26.543542518822292,4.098800725533751C24.813268184122936,2.2895741110014036,21.733450557599767,2.308617889078188,19.267813594923247,2.741959076059983C17.033433448858403,3.1346563625304253,15.466573808658667,5.042542381956492,13.626185264562075,6.36905502897047C12.360961799688107,7.281001005181717,11.530743348084581,8.713466349196322,10.105215370061465,9.346163641326532C7.849980495670055,10.347112777466126,4.094351261757822,8.856244349741507,3.0189085876993715,11.07692140114359C1.9969135862801966,13.18723457826032,6.282355329674672,14.831629199456355,6.313246181364891,17.176184859644472C6.350087508748413,19.972370070466475,2.67914432779889,22.087618794775913,3.2001801073506595,24.835077754078117C3.6710570728788223,27.318045696859944,6.4005570687974345,28.86757830322067,8.720516979890496,29.869896083402338C10.986074573952806,30.84870983259525,13.794291002031333,31.472226877622422,16,30.365124631259178" fill="#59ff00" strokewidth="0"></path></g><g id="SVGRepo_tracerCarrier" stroke-linecap="round" stroke-linejoin="round" stroke="#1eff00" stroke-width="1.6640000000000001"></g><g id="SVGRepo_iconCarrier"> <path d="m12.53 30.15a14.26 14.26 0 0 1 .09-2.71c.16 0 3.16.09 3.16 0s-.2-4.25.17-4.46a42.49 42.49 0 0 1 4.58-.41v-2.5s-3.87.16-3.91-.17-.63-5.42-.25-5.54 6-.38 6 .08.16 4.59.16 4.59 4-.34 4.17 0 .08 3.37.5 3.41 6.92.29 6.92 0a19.59 19.59 0 0 1 .21-3.54c.2-.16 4.91-.21 4.91-.21a26.21 26.21 0 0 1 .09-4c.2-.29 6.41-.33 6.41.05a49.43 49.43 0 0 1 -.37 5.2c-.17 0-4.92.09-4.92.09v1.12s7.54.21 7.62.59-.2 5.54 0 5.54 3.75 0 3.79.37 0 3.5 0 3.5 4 .09 4.12.54-.29 13.21-.75 13.42a16 16 0 0 1 -4.75-.17c-.12-.25 0-8.5-.21-8.58s-2.54 0-2.54 0 .25 9-.08 9.33-5.38.25-5.38.25.38 3.46.13 3.54-10.09.59-10.09.21-.08-5 .3-5.21 7.25-.2 7.2-.41 0-1.84-.12-1.88-15.69.17-15.69.42a6.42 6.42 0 0 0 0 1.79c.13 0 7.17.17 7.21.29a34.05 34.05 0 0 1 0 5.05 85.93 85.93 0 0 1 -9.08 0c-.34-.21-.46-4.09-.46-4.09s-5.54-.58-5.58-.87 0-8.34-.17-8.46a3.69 3.69 0 0 0 -1.67 0c0 .13.17 8 0 8.08s-6 .67-6 0-.42-13.4-.05-13.66a25.8 25.8 0 0 1 4.33-.59z" fill="#ff00f7"></path> <g fill="#000000"> <path d="m10.12 32.32a13.49 13.49 0 0 1 2.46-.32s.12 11 0 11-2.38.33-2.46 0-.12-10.47 0-10.68z"></path> <path d="m14.58 29a1.47 1.47 0 0 1 1.12 0c0 .12.08 5.58 0 5.58s-1.08.21-1.13 0-.12-5.47.01-5.58z"></path> <path d="m18.24 15.78c.18-.12 2.25-.13 2.34.12a8.13 8.13 0 0 1 0 2.42 23 23 0 0 1 -2.34 0 6.06 6.06 0 0 1 0-2.54z"></path> <path d="m41.08 16a9.9 9.9 0 0 1 2.58.12 9.92 9.92 0 0 1 -.08 2.21 13 13 0 0 1 -2.5 0 19.4 19.4 0 0 1 0-2.33z"></path> </g> <path d="m22.24 20.57a13.52 13.52 0 0 1 2.84-.13 25.27 25.27 0 0 0 .29 3.71c.16 0 10.37-.08 10.41-.29s.21-3.25.34-3.37a7 7 0 0 1 2.5 0c0 .16-.13 2.41.08 2.46s7.17.25 7.25.41-.17 9.21-.17 9.21-1.54-1.67-1.66-1.5-.5.67-.34.75a14.21 14.21 0 0 1 2 2 11.15 11.15 0 0 1 0 1.67 22.17 22.17 0 0 0 -2.46-2c-.09.12-.34.66-.21.79s2.67 2.5 2.67 2.66 0 1.46 0 1.46a29.93 29.93 0 0 0 -2.54-1.79c-.12 0-.46.88-.29.92a14.88 14.88 0 0 1 2.79 1.79c0 .25.09 1.46.09 1.46s-2.71-1.78-2.83-1.78-.21.87-.21.87a25.8 25.8 0 0 1 3 2.17 8.81 8.81 0 0 1 0 1.25 18.78 18.78 0 0 0 -2.58-1.63c-.13.13-.38.67-.17.75s1.88 1.42 1.71 1.46a12.26 12.26 0 0 1 -2.75.08c0-.16 0-3.58-.17-3.62s-8.08-.21-9.91-.13-9.63.5-9.75.8.12 2.75 0 2.75a36 36 0 0 1 -4.3-.34c-.12-.16-.5-18.75-.12-18.87s4.54-.25 4.54-.38-.01-3.47-.05-3.59z" fill="#000000"></path> <path d="m21.62 27.65a21.2 21.2 0 0 1 5.71-.21 38.53 38.53 0 0 1 .12 5.75 36.53 36.53 0 0 1 -5.71.13 43.08 43.08 0 0 1 -.12-5.67z" fill="#ff00f7"></path> <path d="m23.58 29.19a3.86 3.86 0 0 1 1.91 0c0 .13.29 2.17 0 2.3a4.59 4.59 0 0 1 -2 .08 14.46 14.46 0 0 1 .09-2.38z" fill="#0062ff"></path> <path d="m35.28 27.28a21.23 21.23 0 0 1 5.72-.21 37.28 37.28 0 0 1 .13 5.75 37.8 37.8 0 0 1 -5.71.12 43 43 0 0 1 -.14-5.66z" fill="#ff00f7"></path> <path d="m37.24 28.82a3.67 3.67 0 0 1 1.92 0c0 .12.29 2.17 0 2.29a4.44 4.44 0 0 1 -2 .08 15.54 15.54 0 0 1 .08-2.37z" fill="#0062ff"></path> <path d="m19 25.9c0 .26 1-.21 1 0s.21 4.09.09 4.17-1 .21-1 0-.09-4.25-.09-4.17z" fill="#ff00f7"></path> <path d="m48 28.65c.12-.12 2-.25 2 .09s0 5.79-.21 5.79a10.7 10.7 0 0 1 -2.08-.09c-.05-.12.16-5.7.29-5.79z" fill="#000000"></path> <path d="m52.37 32.82c.2-.07 1.83-.13 1.87.08s-.54 10.42-.71 10.5a5.45 5.45 0 0 1 -1.25 0s-.04-10.54.09-10.58z" fill="#000000"></path> <path d="m23.83 45.94a42.27 42.27 0 0 1 5.7.13v2.25l-5.71-.13a10 10 0 0 1 .01-2.25z" fill="#000000"></path> <path d="m34.12 46.15a56.06 56.06 0 0 1 6-.21c0 .17.16 1.84 0 1.92s-6.12.14-6.12.14 0-1.81.12-1.85z" fill="#000000"></path> </g></svg>